<svg id="Layer_1" data-name="Layer 1" xmlns="http://www.w3.org/2000/svg" viewBox="0 0 484.36 381.18"><defs><style>.cls-1{fill:#fff;fill-rule:evenodd;}</style></defs><path class="cls-1" d="M492.48,59.32S420,98.35,420,126.75s0,98.48,0,98.48,4.45,73.4-52,97l-1.65,4.29s104-44.12,104-100.5V116.19c0-21.71,8-41.92,22.31-56l-.1-.89Z" transform="translate(-8.22 -59.32)"/><path class="cls-1" d="M409.88,110.05s-72.45,39-72.46,67.44,0,98.48,0,98.48,4.44,73.39-52.05,97l-1.64,4.29s104-44.13,104-100.51V166.93c0-21.72,8-41.93,22.32-56l-.11-.9Z" transform="translate(-8.22 -59.32)"/><path class="cls-1" d="M326.69,160.38s-72.45,39-72.46,67.43,0,98.48,0,98.48c3.17,52.42-29.08,96.27-79.6,106.88A135.22,135.22,0,0,1,146.86,436a134.17,134.17,0,0,1,0-268.34v-4.46A138.67,138.67,0,1,0,217.93,420.9c32.49-19.44,86.55-50.68,86.55-93.85V217.25c0-21.71,8-41.92,22.32-56l-.11-.9Z" transform="translate(-8.22 -59.32)"/></svg>